<svg width="24" height="14" viewBox="0 0 24 14" fill="none" xmlns="http://www.w3.org/2000/svg">
<path d="M21.9998 14C21.4702 13.9978 20.9632 13.7856 20.5898 13.41L11.9998 4.83001L3.4098 13.41C3.0272 13.7377 2.53505 13.9089 2.03169 13.8894C1.52834 13.87 1.05086 13.6613 0.694674 13.3051C0.338485 12.9489 0.129821 12.4715 0.110378 11.9681C0.090936 11.4648 0.262148 10.9726 0.589801 10.59L10.5898 0.590009C10.9645 0.217507 11.4714 0.00842285 11.9998 0.00842285C12.5282 0.00842285 13.0351 0.217507 13.4098 0.590009L23.4098 10.59C23.6878 10.8697 23.877 11.2253 23.9534 11.6121C24.0299 11.999 23.9903 12.3998 23.8396 12.7643C23.689 13.1287 23.4339 13.4404 23.1065 13.6603C22.7792 13.8802 22.3941 13.9984 21.9998 14Z" fill="black"/>
</svg>
